<svg width="3612" height="883" viewBox="0 0 3612 883" fill="none" xmlns="http://www.w3.org/2000/svg">
<path d="M128.409 387H25.2841V96.0909H129.261C158.523 96.0909 183.712 101.915 204.83 113.562C225.947 125.116 242.188 141.735 253.551 163.42C265.009 185.106 270.739 211.053 270.739 241.261C270.739 271.564 265.009 297.606 253.551 319.386C242.188 341.167 225.852 357.881 204.545 369.528C183.333 381.176 157.955 387 128.409 387ZM86.7898 334.301H125.852C144.034 334.301 159.328 331.081 171.733 324.642C184.233 318.108 193.608 308.023 199.858 294.386C206.203 280.655 209.375 262.947 209.375 241.261C209.375 219.765 206.203 202.199 199.858 188.562C193.608 174.926 184.28 164.888 171.875 158.449C159.47 152.009 144.176 148.79 125.994 148.79H86.7898V334.301ZM315.163 387V168.818H373.828V206.886H376.101C380.078 193.345 386.754 183.117 396.129 176.205C405.504 169.197 416.3 165.693 428.516 165.693C431.546 165.693 434.813 165.883 438.317 166.261C441.821 166.64 444.898 167.161 447.55 167.824V221.517C444.709 220.665 440.779 219.907 435.76 219.244C430.741 218.581 426.148 218.25 421.982 218.25C413.08 218.25 405.125 220.191 398.118 224.074C391.205 227.862 385.713 233.165 381.641 239.983C377.663 246.801 375.675 254.661 375.675 263.562V387H315.163ZM489.205 390.693C479.83 390.693 471.78 387.379 465.057 380.75C458.428 374.027 455.114 365.977 455.114 356.602C455.114 347.322 458.428 339.367 465.057 332.739C471.78 326.11 479.83 322.795 489.205 322.795C498.295 322.795 506.25 326.11 513.068 332.739C519.886 339.367 523.295 347.322 523.295 356.602C523.295 362.852 521.686 368.581 518.466 373.79C515.341 378.903 511.222 383.023 506.108 386.148C500.994 389.178 495.36 390.693 489.205 390.693Z" fill="#2E6FA8"/>
<path d="M549.361 146.801V96.0909H788.281V146.801H699.219V387H638.423V146.801H549.361ZM904.759 391.261C882.694 391.261 863.613 386.574 847.514 377.199C831.51 367.729 819.152 354.566 810.44 337.71C801.728 320.759 797.372 301.11 797.372 278.761C797.372 256.223 801.728 236.527 810.44 219.67C819.152 202.72 831.51 189.557 847.514 180.182C863.613 170.712 882.694 165.977 904.759 165.977C926.823 165.977 945.857 170.712 961.861 180.182C977.959 189.557 990.365 202.72 999.077 219.67C1007.79 236.527 1012.14 256.223 1012.14 278.761C1012.14 301.11 1007.79 320.759 999.077 337.71C990.365 354.566 977.959 367.729 961.861 377.199C945.857 386.574 926.823 391.261 904.759 391.261ZM905.043 344.386C915.08 344.386 923.461 341.545 930.185 335.864C936.908 330.087 941.974 322.227 945.384 312.284C948.887 302.341 950.639 291.025 950.639 278.335C950.639 265.646 948.887 254.33 945.384 244.386C941.974 234.443 936.908 226.583 930.185 220.807C923.461 215.03 915.08 212.142 905.043 212.142C894.91 212.142 886.387 215.03 879.474 220.807C872.656 226.583 867.495 234.443 863.991 244.386C860.582 254.33 858.878 265.646 858.878 278.335C858.878 291.025 860.582 302.341 863.991 312.284C867.495 322.227 872.656 330.087 879.474 335.864C886.387 341.545 894.91 344.386 905.043 344.386ZM861.435 138.989C853.291 138.989 846.283 136.148 840.412 130.466C834.541 124.689 831.605 117.871 831.605 110.011C831.605 101.962 834.541 95.1439 840.412 89.5568C846.283 83.9697 853.291 81.1761 861.435 81.1761C869.673 81.1761 876.634 83.9697 882.315 89.5568C888.092 95.1439 890.98 101.962 890.98 110.011C890.98 117.871 888.092 124.689 882.315 130.466C876.634 136.148 869.673 138.989 861.435 138.989ZM948.366 138.989C940.223 138.989 933.215 136.148 927.344 130.466C921.473 124.689 918.537 117.871 918.537 110.011C918.537 101.962 921.473 95.1439 927.344 89.5568C933.215 83.9697 940.223 81.1761 948.366 81.1761C956.605 81.1761 963.565 83.9697 969.247 89.5568C975.024 95.1439 977.912 101.962 977.912 110.011C977.912 117.871 975.024 124.689 969.247 130.466C963.565 136.148 956.605 138.989 948.366 138.989ZM1051.49 387V168.818H1110.16V206.886H1112.43C1116.41 193.345 1123.08 183.117 1132.46 176.205C1141.83 169.197 1152.63 165.693 1164.84 165.693C1167.87 165.693 1171.14 165.883 1174.64 166.261C1178.15 166.64 1181.23 167.161 1183.88 167.824V221.517C1181.04 220.665 1177.11 219.907 1172.09 219.244C1167.07 218.581 1162.48 218.25 1158.31 218.25C1149.41 218.25 1141.45 220.191 1134.45 224.074C1127.53 227.862 1122.04 233.165 1117.97 239.983C1113.99 246.801 1112 254.661 1112 263.562V387H1051.49ZM1303.59 391.261C1281.52 391.261 1262.44 386.574 1246.34 377.199C1230.34 367.729 1217.98 354.566 1209.27 337.71C1200.56 320.759 1196.2 301.11 1196.2 278.761C1196.2 256.223 1200.56 236.527 1209.27 219.67C1217.98 202.72 1230.34 189.557 1246.34 180.182C1262.44 170.712 1281.52 165.977 1303.59 165.977C1325.65 165.977 1344.69 170.712 1360.69 180.182C1376.79 189.557 1389.19 202.72 1397.9 219.67C1406.62 236.527 1410.97 256.223 1410.97 278.761C1410.97 301.11 1406.62 320.759 1397.9 337.71C1389.19 354.566 1376.79 367.729 1360.69 377.199C1344.69 386.574 1325.65 391.261 1303.59 391.261ZM1303.87 344.386C1313.91 344.386 1322.29 341.545 1329.01 335.864C1335.74 330.087 1340.8 322.227 1344.21 312.284C1347.72 302.341 1349.47 291.025 1349.47 278.335C1349.47 265.646 1347.72 254.33 1344.21 244.386C1340.8 234.443 1335.74 226.583 1329.01 220.807C1322.29 215.03 1313.91 212.142 1303.87 212.142C1293.74 212.142 1285.22 215.03 1278.3 220.807C1271.48 226.583 1266.32 234.443 1262.82 244.386C1259.41 254.33 1257.71 265.646 1257.71 278.335C1257.71 291.025 1259.41 302.341 1262.82 312.284C1266.32 322.227 1271.48 330.087 1278.3 335.864C1285.22 341.545 1293.74 344.386 1303.87 344.386ZM1260.26 138.989C1252.12 138.989 1245.11 136.148 1239.24 130.466C1233.37 124.689 1230.43 117.871 1230.43 110.011C1230.43 101.962 1233.37 95.1439 1239.24 89.5568C1245.11 83.9697 1252.12 81.1761 1260.26 81.1761C1268.5 81.1761 1275.46 83.9697 1281.14 89.5568C1286.92 95.1439 1289.81 101.962 1289.81 110.011C1289.81 117.871 1286.92 124.689 1281.14 130.466C1275.46 136.148 1268.5 138.989 1260.26 138.989ZM1347.19 138.989C1339.05 138.989 1332.04 136.148 1326.17 130.466C1320.3 124.689 1317.37 117.871 1317.37 110.011C1317.37 101.962 1320.3 95.1439 1326.17 89.5568C1332.04 83.9697 1339.05 81.1761 1347.19 81.1761C1355.43 81.1761 1362.39 83.9697 1368.08 89.5568C1373.85 95.1439 1376.74 101.962 1376.74 110.011C1376.74 117.871 1373.85 124.689 1368.08 130.466C1362.39 136.148 1355.43 138.989 1347.19 138.989ZM1505.15 324.216L1505.29 251.631H1514.1L1583.98 168.818H1653.44L1559.55 278.477H1545.21L1505.15 324.216ZM1450.32 387V96.0909H1510.83V387H1450.32ZM1586.68 387L1522.48 291.972L1562.82 249.216L1657.56 387H1586.68ZM1765.77 146.801V96.0909H2004.69V146.801H1915.62V387H1854.83V146.801H1765.77ZM2075.43 391.119C2061.51 391.119 2049.1 388.705 2038.21 383.875C2027.32 378.951 2018.7 371.706 2012.36 362.142C2006.11 352.483 2002.98 340.456 2002.98 326.062C2002.98 313.941 2005.21 303.761 2009.66 295.523C2014.11 287.284 2020.17 280.655 2027.84 275.636C2035.51 270.617 2044.22 266.83 2053.98 264.273C2063.83 261.716 2074.15 259.917 2084.94 258.875C2097.63 257.549 2107.86 256.318 2115.62 255.182C2123.39 253.951 2129.02 252.152 2132.53 249.784C2136.03 247.417 2137.78 243.913 2137.78 239.273V238.42C2137.78 229.424 2134.94 222.464 2129.26 217.54C2123.67 212.616 2115.72 210.153 2105.4 210.153C2094.51 210.153 2085.84 212.568 2079.4 217.398C2072.96 222.133 2068.7 228.098 2066.62 235.295L2010.65 230.75C2013.49 217.492 2019.08 206.034 2027.41 196.375C2035.75 186.621 2046.5 179.14 2059.66 173.932C2072.92 168.629 2088.26 165.977 2105.68 165.977C2117.8 165.977 2129.4 167.398 2140.48 170.239C2151.66 173.08 2161.55 177.483 2170.17 183.449C2178.88 189.415 2185.75 197.085 2190.77 206.46C2195.79 215.741 2198.3 226.867 2198.3 239.841V387H2140.91V356.744H2139.2C2135.7 363.562 2131.01 369.576 2125.14 374.784C2119.27 379.898 2112.22 383.922 2103.98 386.858C2095.74 389.699 2086.22 391.119 2075.43 391.119ZM2092.76 349.358C2101.66 349.358 2109.52 347.606 2116.34 344.102C2123.15 340.504 2128.5 335.674 2132.39 329.614C2136.27 323.553 2138.21 316.687 2138.21 309.017V285.864C2136.32 287.095 2133.71 288.231 2130.4 289.273C2127.18 290.22 2123.53 291.119 2119.46 291.972C2115.39 292.729 2111.32 293.439 2107.24 294.102C2103.17 294.67 2099.48 295.191 2096.16 295.665C2089.06 296.706 2082.86 298.364 2077.56 300.636C2072.25 302.909 2068.13 305.987 2065.2 309.869C2062.26 313.657 2060.8 318.392 2060.8 324.074C2060.8 332.312 2063.78 338.61 2069.74 342.966C2075.8 347.227 2083.48 349.358 2092.76 349.358ZM2245.24 387V168.818H2302.91V207.312H2305.47C2310.01 194.528 2317.59 184.443 2328.2 177.057C2338.8 169.67 2351.49 165.977 2366.26 165.977C2381.23 165.977 2393.96 169.718 2404.47 177.199C2414.99 184.585 2421.99 194.623 2425.5 207.312H2427.77C2432.22 194.812 2440.27 184.822 2451.92 177.341C2463.66 169.765 2477.53 165.977 2493.54 165.977C2513.9 165.977 2530.42 172.464 2543.11 185.438C2555.89 198.316 2562.29 216.593 2562.29 240.267V387H2501.92V252.199C2501.92 240.078 2498.7 230.987 2492.26 224.926C2485.82 218.866 2477.77 215.835 2468.11 215.835C2457.13 215.835 2448.56 219.339 2442.4 226.347C2436.25 233.259 2433.17 242.398 2433.17 253.761V387H2374.5V250.92C2374.5 240.22 2371.43 231.697 2365.27 225.352C2359.21 219.008 2351.21 215.835 2341.26 215.835C2334.54 215.835 2328.48 217.54 2323.08 220.949C2317.78 224.263 2313.57 228.951 2310.44 235.011C2307.32 240.977 2305.75 247.985 2305.75 256.034V387H2245.24ZM2672.3 391.119C2658.38 391.119 2645.98 388.705 2635.09 383.875C2624.2 378.951 2615.58 371.706 2609.23 362.142C2602.98 352.483 2599.86 340.456 2599.86 326.062C2599.86 313.941 2602.08 303.761 2606.53 295.523C2610.98 287.284 2617.05 280.655 2624.72 275.636C2632.39 270.617 2641.1 266.83 2650.85 264.273C2660.7 261.716 2671.02 259.917 2681.82 258.875C2694.51 257.549 2704.73 256.318 2712.5 255.182C2720.27 253.951 2725.9 252.152 2729.4 249.784C2732.91 247.417 2734.66 243.913 2734.66 239.273V238.42C2734.66 229.424 2731.82 222.464 2726.14 217.54C2720.55 212.616 2712.59 210.153 2702.27 210.153C2691.38 210.153 2682.72 212.568 2676.28 217.398C2669.84 222.133 2665.58 228.098 2663.49 235.295L2607.53 230.75C2610.37 217.492 2615.96 206.034 2624.29 196.375C2632.62 186.621 2643.37 179.14 2656.53 173.932C2669.79 168.629 2685.13 165.977 2702.56 165.977C2714.68 165.977 2726.28 167.398 2737.36 170.239C2748.53 173.08 2758.43 177.483 2767.05 183.449C2775.76 189.415 2782.62 197.085 2787.64 206.46C2792.66 215.741 2795.17 226.867 2795.17 239.841V387H2737.78V356.744H2736.08C2732.58 363.562 2727.89 369.576 2722.02 374.784C2716.15 379.898 2709.09 383.922 2700.85 386.858C2692.61 389.699 2683.1 391.119 2672.3 391.119ZM2689.63 349.358C2698.53 349.358 2706.39 347.606 2713.21 344.102C2720.03 340.504 2725.38 335.674 2729.26 329.614C2733.14 323.553 2735.09 316.687 2735.09 309.017V285.864C2733.19 287.095 2730.59 288.231 2727.27 289.273C2724.05 290.22 2720.41 291.119 2716.34 291.972C2712.26 292.729 2708.19 293.439 2704.12 294.102C2700.05 294.67 2696.35 295.191 2693.04 295.665C2685.94 296.706 2679.73 298.364 2674.43 300.636C2669.13 302.909 2665.01 305.987 2662.07 309.869C2659.14 313.657 2657.67 318.392 2657.67 324.074C2657.67 332.312 2660.65 338.61 2666.62 342.966C2672.68 347.227 2680.35 349.358 2689.63 349.358ZM2683.1 140.693L2713.21 76.0625H2769.18L2725.85 140.693H2683.1ZM3023.65 231.034L2968.25 234.443C2967.31 229.708 2965.27 225.447 2962.14 221.659C2959.02 217.777 2954.9 214.699 2949.79 212.426C2944.77 210.059 2938.75 208.875 2931.75 208.875C2922.37 208.875 2914.46 210.864 2908.03 214.841C2901.59 218.723 2898.37 223.932 2898.37 230.466C2898.37 235.674 2900.45 240.078 2904.62 243.676C2908.78 247.275 2915.93 250.163 2926.07 252.341L2965.55 260.295C2986.77 264.652 3002.58 271.659 3013 281.318C3023.41 290.977 3028.62 303.667 3028.62 319.386C3028.62 333.686 3024.41 346.233 3015.98 357.028C3007.65 367.824 2996.19 376.252 2981.61 382.312C2967.12 388.278 2950.4 391.261 2931.46 391.261C2902.58 391.261 2879.57 385.248 2862.43 373.222C2845.38 361.1 2835.39 344.623 2832.46 323.79L2891.97 320.665C2893.77 329.472 2898.13 336.195 2905.04 340.835C2911.96 345.381 2920.81 347.653 2931.61 347.653C2942.21 347.653 2950.73 345.617 2957.17 341.545C2963.71 337.379 2967.02 332.028 2967.12 325.494C2967.02 320.002 2964.7 315.504 2960.16 312C2955.61 308.402 2948.6 305.655 2939.13 303.761L2901.35 296.233C2880.04 291.972 2864.18 284.585 2853.76 274.074C2843.44 263.562 2838.28 250.163 2838.28 233.875C2838.28 219.86 2842.07 207.786 2849.64 197.653C2857.32 187.521 2868.06 179.708 2881.89 174.216C2895.81 168.723 2912.1 165.977 2930.75 165.977C2958.31 165.977 2980 171.801 2995.81 183.449C3011.72 195.097 3021 210.958 3023.65 231.034Z" fill="#111111"/>
<path d="M75.4261 878H9.51705L109.943 587.091H189.205L289.489 878H223.58L150.71 653.568H148.438L75.4261 878ZM71.3068 763.653H226.989V811.665H71.3068V763.653ZM127.841 558.966L157.955 494.335H213.92L170.597 558.966H127.841ZM383.878 587.091V878H323.366V587.091H383.878ZM492.862 587.091V878H432.351V587.091H492.862ZM603.551 882.119C589.631 882.119 577.225 879.705 566.335 874.875C555.445 869.951 546.828 862.706 540.483 853.142C534.233 843.483 531.108 831.456 531.108 817.062C531.108 804.941 533.333 794.761 537.784 786.523C542.235 778.284 548.295 771.655 555.966 766.636C563.636 761.617 572.348 757.83 582.102 755.273C591.951 752.716 602.273 750.917 613.068 749.875C625.758 748.549 635.985 747.318 643.75 746.182C651.515 744.951 657.15 743.152 660.653 740.784C664.157 738.417 665.909 734.913 665.909 730.273V729.42C665.909 720.424 663.068 713.464 657.386 708.54C651.799 703.616 643.845 701.153 633.523 701.153C622.633 701.153 613.968 703.568 607.528 708.398C601.089 713.133 596.828 719.098 594.744 726.295L538.778 721.75C541.619 708.492 547.206 697.034 555.54 687.375C563.873 677.621 574.621 670.14 587.784 664.932C601.042 659.629 616.383 656.977 633.807 656.977C645.928 656.977 657.528 658.398 668.608 661.239C679.782 664.08 689.678 668.483 698.295 674.449C707.008 680.415 713.873 688.085 718.892 697.46C723.911 706.741 726.42 717.867 726.42 730.841V878H669.034V847.744H667.33C663.826 854.562 659.138 860.576 653.267 865.784C647.396 870.898 640.341 874.922 632.102 877.858C623.864 880.699 614.347 882.119 603.551 882.119ZM620.881 840.358C629.782 840.358 637.642 838.606 644.46 835.102C651.278 831.504 656.629 826.674 660.511 820.614C664.394 814.553 666.335 807.687 666.335 800.017V776.864C664.441 778.095 661.837 779.231 658.523 780.273C655.303 781.22 651.657 782.119 647.585 782.972C643.513 783.729 639.441 784.439 635.369 785.102C631.297 785.67 627.604 786.191 624.29 786.665C617.188 787.706 610.985 789.364 605.682 791.636C600.379 793.909 596.259 796.987 593.324 800.869C590.388 804.657 588.92 809.392 588.92 815.074C588.92 823.312 591.903 829.61 597.869 833.966C603.93 838.227 611.6 840.358 620.881 840.358ZM889.418 659.818V705.273H758.026V659.818H889.418ZM787.855 607.545H848.366V810.955C848.366 816.542 849.219 820.898 850.923 824.023C852.628 827.053 854.995 829.184 858.026 830.415C861.151 831.646 864.749 832.261 868.821 832.261C871.662 832.261 874.503 832.025 877.344 831.551C880.185 830.983 882.363 830.557 883.878 830.273L893.395 875.301C890.365 876.248 886.103 877.337 880.611 878.568C875.118 879.894 868.442 880.699 860.582 880.983C845.999 881.551 833.215 879.61 822.23 875.159C811.34 870.708 802.865 863.795 796.804 854.42C790.743 845.045 787.76 833.208 787.855 818.909V607.545ZM1025.07 882.261C1003.01 882.261 983.925 877.574 967.827 868.199C951.823 858.729 939.465 845.566 930.753 828.71C922.041 811.759 917.685 792.11 917.685 769.761C917.685 747.223 922.041 727.527 930.753 710.67C939.465 693.72 951.823 680.557 967.827 671.182C983.925 661.712 1003.01 656.977 1025.07 656.977C1047.14 656.977 1066.17 661.712 1082.17 671.182C1098.27 680.557 1110.68 693.72 1119.39 710.67C1128.1 727.527 1132.46 747.223 1132.46 769.761C1132.46 792.11 1128.1 811.759 1119.39 828.71C1110.68 845.566 1098.27 858.729 1082.17 868.199C1066.17 877.574 1047.14 882.261 1025.07 882.261ZM1025.36 835.386C1035.39 835.386 1043.77 832.545 1050.5 826.864C1057.22 821.087 1062.29 813.227 1065.7 803.284C1069.2 793.341 1070.95 782.025 1070.95 769.335C1070.95 756.646 1069.2 745.33 1065.7 735.386C1062.29 725.443 1057.22 717.583 1050.5 711.807C1043.77 706.03 1035.39 703.142 1025.36 703.142C1015.22 703.142 1006.7 706.03 999.787 711.807C992.969 717.583 987.808 725.443 984.304 735.386C980.895 745.33 979.19 756.646 979.19 769.335C979.19 782.025 980.895 793.341 984.304 803.284C987.808 813.227 992.969 821.087 999.787 826.864C1006.7 832.545 1015.22 835.386 1025.36 835.386ZM1171.8 878V659.818H1230.47V697.886H1232.74C1236.72 684.345 1243.39 674.117 1252.77 667.205C1262.14 660.197 1272.94 656.693 1285.16 656.693C1288.19 656.693 1291.45 656.883 1294.96 657.261C1298.46 657.64 1301.54 658.161 1304.19 658.824V712.517C1301.35 711.665 1297.42 710.907 1292.4 710.244C1287.38 709.581 1282.79 709.25 1278.62 709.25C1269.72 709.25 1261.77 711.191 1254.76 715.074C1247.85 718.862 1242.35 724.165 1238.28 730.983C1234.3 737.801 1232.32 745.661 1232.32 754.562V878H1171.8ZM1545.53 659.818L1469.25 878H1401.07L1324.79 659.818H1388.71L1434.02 815.926H1436.29L1481.46 659.818H1545.53ZM1668.04 882.261C1645.98 882.261 1626.89 877.574 1610.8 868.199C1594.79 858.729 1582.43 845.566 1573.72 828.71C1565.01 811.759 1560.65 792.11 1560.65 769.761C1560.65 747.223 1565.01 727.527 1573.72 710.67C1582.43 693.72 1594.79 680.557 1610.8 671.182C1626.89 661.712 1645.98 656.977 1668.04 656.977C1690.1 656.977 1709.14 661.712 1725.14 671.182C1741.24 680.557 1753.65 693.72 1762.36 710.67C1771.07 727.527 1775.43 747.223 1775.43 769.761C1775.43 792.11 1771.07 811.759 1762.36 828.71C1753.65 845.566 1741.24 858.729 1725.14 868.199C1709.14 877.574 1690.1 882.261 1668.04 882.261ZM1668.32 835.386C1678.36 835.386 1686.74 832.545 1693.47 826.864C1700.19 821.087 1705.26 813.227 1708.66 803.284C1712.17 793.341 1713.92 782.025 1713.92 769.335C1713.92 756.646 1712.17 745.33 1708.66 735.386C1705.26 725.443 1700.19 717.583 1693.47 711.807C1686.74 706.03 1678.36 703.142 1668.32 703.142C1658.19 703.142 1649.67 706.03 1642.76 711.807C1635.94 717.583 1630.78 725.443 1627.27 735.386C1623.86 745.33 1622.16 756.646 1622.16 769.335C1622.16 782.025 1623.86 793.341 1627.27 803.284C1630.78 813.227 1635.94 821.087 1642.76 826.864C1649.67 832.545 1658.19 835.386 1668.32 835.386ZM1996.31 722.034L1940.91 725.443C1939.96 720.708 1937.93 716.447 1934.8 712.659C1931.68 708.777 1927.56 705.699 1922.44 703.426C1917.42 701.059 1911.41 699.875 1904.4 699.875C1895.03 699.875 1887.12 701.864 1880.68 705.841C1874.24 709.723 1871.02 714.932 1871.02 721.466C1871.02 726.674 1873.11 731.078 1877.27 734.676C1881.44 738.275 1888.59 741.163 1898.72 743.341L1938.21 751.295C1959.42 755.652 1975.24 762.659 1985.65 772.318C1996.07 781.977 2001.28 794.667 2001.28 810.386C2001.28 824.686 1997.06 837.233 1988.64 848.028C1980.3 858.824 1968.84 867.252 1954.26 873.312C1939.77 879.278 1923.06 882.261 1904.12 882.261C1875.24 882.261 1852.23 876.248 1835.09 864.222C1818.04 852.1 1808.05 835.623 1805.11 814.79L1864.63 811.665C1866.43 820.472 1870.79 827.195 1877.7 831.835C1884.61 836.381 1893.47 838.653 1904.26 838.653C1914.87 838.653 1923.39 836.617 1929.83 832.545C1936.36 828.379 1939.68 823.028 1939.77 816.494C1939.68 811.002 1937.36 806.504 1932.81 803C1928.27 799.402 1921.26 796.655 1911.79 794.761L1874.01 787.233C1852.7 782.972 1836.84 775.585 1826.42 765.074C1816.1 754.562 1810.94 741.163 1810.94 724.875C1810.94 710.86 1814.73 698.786 1822.3 688.653C1829.97 678.521 1840.72 670.708 1854.55 665.216C1868.47 659.723 1884.75 656.977 1903.41 656.977C1930.97 656.977 1952.65 662.801 1968.47 674.449C1984.38 686.097 1993.66 701.958 1996.31 722.034Z" fill="#111111"/>
</svg>
